# xmcd
#
# Track frame offsets: 
#        150
#        12185
#        44607
#        64082
#        78295
#        103582
#        117592
#        145267
#        162362
#        176075
#        192977
#        205172
#        222612
#        238450
#        254485
#        268912
#        279972
#        294592
#        306617
#        320855
#
# Disc length: 4412 seconds
#
# Revision: 10
# Processed by: cddbd v1.5.2PL0 Copyright (c) Steve Scherf et al.
# Submitted via: ExactAudioCopyFreeDBPlugin 1.0
#
DISCID=4a113a14
DTITLE=Mahalia Jackson - Greatest Hits
DYEAR=1995
DGENRE=Gospel
TTITLE0=Walk In Jerusalem
TTITLE1=The Upper Room
TTITLE2=It's No Secret (What God Can Do)
TTITLE3=Then The Answer Came
TTITLE4=Just Over The Hill
TTITLE5=That's What He's Done For Me
TTITLE6=Move Up A Little Higher
TTITLE7=Nobody Knows The Trouble I've Seen
TTITLE8=I Believe
TTITLE9=Crying In The Chapel
TTITLE10=We Shall Overcome
TTITLE11=When The Saints Go Marching In
TTITLE12=Down By The Riverside
TTITLE13=The Green Leaves Of Summer
TTITLE14=Danny Boy
TTITLE15=Joshua Fit The Battle Of Jericho
TTITLE16=Put A Little Love In Your Heart
TTITLE17=Though You're Reeling And Rocking
TTITLE18=Go Tell It On The Mountain
TTITLE19=Nobody But Jesus
EXTD=YEAR: 1995
EXTT0=Yesterday: 08.05.2006
EXTT1=
EXTT2=What God Can Do
EXTT3=
EXTT4=
EXTT5=
EXTT6=
EXTT7=
EXTT8=
EXTT9=
EXTT10=
EXTT11=
EXTT12=
EXTT13=
EXTT14=
EXTT15=
EXTT16=
EXTT17=
EXTT18=
EXTT19=
PLAYORDER=
